<?xml version="1.0" standalone="no"?>
<!DOCTYPE svg PUBLIC "-//W3C//DTD SVG 20010904//EN"
 "http://www.w3.org/TR/2001/REC-SVG-20010904/DTD/svg10.dtd">
<svg version="1.0" xmlns="http://www.w3.org/2000/svg"
 width="700.000000pt" height="700.000000pt" viewBox="0 0 700.000000 700.000000"
 preserveAspectRatio="xMidYMid meet">
<metadata>
Created by potrace 1.14, written by Peter Selinger 2001-2017
</metadata>
<g transform="translate(0.000000,700.000000) scale(0.100000,-0.100000)"
fill="#000000" stroke="none">
<path d="M6546 6164 c-86 -27 -171 -97 -209 -171 -41 -78 -50 -193 -23 -270
l15 -42 -147 -140 c-81 -77 -192 -183 -247 -235 l-100 -95 -5 177 c-5 168 -6
180 -33 234 -50 102 -133 168 -242 193 -37 8 -681 11 -2425 10 -1975 -1 -2382
-3 -2415 -14 -109 -38 -198 -126 -231 -231 -16 -51 -18 -171 -18 -1827 0
-1240 -3 -1773 -10 -1773 -184 -6 -219 -13 -291 -58 -49 -30 -101 -85 -124
-132 -39 -77 -42 -116 -39 -420 3 -293 3 -295 29 -350 46 -99 112 -157 215
-191 55 -18 153 -19 2899 -19 3156 0 2893 -6 3001 66 56 37 90 81 126 159 22
49 23 59 23 360 l0 310 -31 65 c-39 81 -91 134 -173 173 -53 25 -77 30 -155
33 -50 2 -94 3 -98 3 -5 1 -8 655 -8 1454 l0 1454 63 58 c34 31 103 96 153
144 50 47 164 156 254 241 89 85 169 161 176 168 11 10 24 10 71 -4 150 -44
308 13 395 143 31 46 58 138 58 199 0 86 -56 203 -124 261 -84 71 -227 100
-330 67z m181 -256 c28 -29 40 -90 24 -130 -6 -16 -25 -37 -43 -48 -103 -63
-218 43 -163 150 33 63 131 78 182 28z m-1169 -349 c18 -17 33 -36 33 -43 1
-6 3 -127 4 -270 l2 -259 -104 -101 c-58 -55 -110 -104 -116 -108 -9 -5 -12
56 -13 245 0 228 -2 255 -18 280 -41 61 121 57 -2198 57 -2089 0 -2124 0
-2155 -20 -65 -39 -61 71 -59 -1567 l1 -1493 33 -32 32 -33 2136 -3 c2339 -2
2171 -7 2211 55 16 25 18 99 19 1097 1 589 2 1074 3 1078 0 3 25 29 54 56 28
28 78 75 110 105 31 30 58 54 59 53 7 -7 2 -2668 -5 -2673 -7 -4 -4652 -8
-4852 -4 l-35 1 0 1760 c0 1552 2 1764 15 1790 33 64 -161 59 2441 60 l2370 0
32 -31z m-428 -724 l0 -291 -147 -140 c-82 -78 -160 -152 -174 -165 -26 -24
-270 -255 -422 -400 l-80 -77 -439 329 c-241 181 -446 330 -456 330 -43 4 -77
-3 -98 -19 -12 -9 -102 -107 -200 -217 -97 -110 -191 -216 -208 -235 -17 -19
-65 -73 -106 -120 -41 -47 -77 -87 -80 -90 -10 -10 -181 -202 -268 -300 l-31
-35 -160 80 c-89 44 -161 82 -161 85 -6 103 -13 140 -34 185 -32 70 -102 140
-174 173 -48 23 -70 27 -142 27 -71 0 -95 -5 -142 -27 -123 -57 -197 -164
-206 -294 -10 -164 85 -305 240 -355 110 -35 232 -14 320 55 l32 24 197 -99
c246 -123 242 -122 289 -109 32 9 91 71 452 477 228 258 426 481 440 497 l24
29 425 -319 c233 -175 435 -324 449 -330 14 -7 34 -11 45 -9 11 2 27 4 35 4
17 1 38 20 246 217 77 72 160 151 185 175 84 79 334 317 342 325 4 4 7 -393 7
-882 l0 -889 -1982 0 -1981 0 -1 1330 c-1 732 0 1335 1 1340 2 7 639 11 1983
11 l1980 0 0 -291z m-3312 -1132 c15 -11 32 -38 39 -63 11 -37 10 -48 -4 -77
-52 -109 -207 -80 -218 41 -9 93 107 156 183 99z m507 -1964 c3 -4 6 -37 6
-75 0 -75 13 -142 37 -189 41 -84 134 -160 227 -186 58 -17 1061 -15 1112 2
99 31 175 94 218 178 30 60 38 102 39 199 0 41 5 72 11 73 5 1 457 2 1004 3
920 1 996 0 1022 -16 61 -37 63 -45 62 -328 0 -288 -3 -306 -61 -337 -37 -19
-66 -20 -2862 -18 -2741 1 -2826 1 -2853 19 -51 34 -55 59 -53 342 2 287 3
294 66 323 33 14 133 16 1027 16 546 0 995 -3 998 -6z m1405 -67 c0 -87 -16
-123 -64 -146 -30 -14 -91 -16 -523 -16 -466 0 -489 1 -520 20 -17 10 -37 29
-43 41 -13 24 -21 161 -9 169 4 3 266 5 583 5 l576 0 0 -73z"/>
<path d="M3269 3725 c-1 0 -2 -236 -3 -525 l-1 -525 115 1 115 0 2 525 3 526
-115 -1 c-63 0 -116 0 -116 -1z"/>
<path d="M4200 3233 c-6 -302 -3 -553 5 -554 6 0 58 -2 118 -2 l107 -2 0 293
0 292 -115 0 -115 0 0 -27z"/>
<path d="M1631 2854 c1 -96 4 -174 7 -175 46 -6 215 -2 221 6 4 6 7 84 7 175
l-1 165 -117 1 -117 1 0 -173z"/>
<path d="M2330 2795 c0 -69 4 -115 10 -116 6 0 53 -1 105 -1 52 0 101 1 108 1
10 1 13 27 13 116 l0 115 -118 0 -118 0 0 -115z"/>
</g>
</svg>
